<svg id="view" enable-background="new 0 0 300 300" height="512" viewBox="0 0 300 300" width="512" xmlns="http://www.w3.org/2000/svg"><path d="m121.297 146h-62.594c-11.414 0-20.703-9.289-20.703-20.703v-62.594c0-11.414 9.289-20.703 20.703-20.703h62.594c11.414 0 20.703 9.289 20.703 20.703v62.594c0 11.414-9.289 20.703-20.703 20.703zm-62.594-88c-2.594 0-4.703 2.109-4.703 4.703v62.594c0 2.594 2.109 4.703 4.703 4.703h62.594c2.594 0 4.703-2.109 4.703-4.703v-62.594c0-2.594-2.109-4.703-4.703-4.703z" fill="#af16ef"/><path d="m241.297 146h-62.594c-11.414 0-20.703-9.289-20.703-20.703v-62.594c0-11.414 9.289-20.703 20.703-20.703h62.594c11.414 0 20.703 9.289 20.703 20.703v62.594c0 11.414-9.289 20.703-20.703 20.703zm-62.594-88c-2.594 0-4.703 2.109-4.703 4.703v62.594c0 2.594 2.109 4.703 4.703 4.703h62.594c2.594 0 4.703-2.109 4.703-4.703v-62.594c0-2.594-2.109-4.703-4.703-4.703z"/><path d="m121.297 258h-62.594c-11.414 0-20.703-9.289-20.703-20.703v-62.594c0-11.414 9.289-20.703 20.703-20.703h62.594c11.414 0 20.703 9.289 20.703 20.703v62.594c0 11.414-9.289 20.703-20.703 20.703zm-62.594-88c-2.594 0-4.703 2.109-4.703 4.703v62.594c0 2.594 2.109 4.703 4.703 4.703h62.594c2.594 0 4.703-2.109 4.703-4.703v-62.594c0-2.594-2.109-4.703-4.703-4.703z"/><path d="m241.297 258h-62.594c-11.414 0-20.703-9.289-20.703-20.703v-62.594c0-11.414 9.289-20.703 20.703-20.703h62.594c11.414 0 20.703 9.289 20.703 20.703v62.594c0 11.414-9.289 20.703-20.703 20.703zm-62.594-88c-2.594 0-4.703 2.109-4.703 4.703v62.594c0 2.594 2.109 4.703 4.703 4.703h62.594c2.594 0 4.703-2.109 4.703-4.703v-62.594c0-2.594-2.109-4.703-4.703-4.703z"/></svg>